<?xml version="1.0" encoding="utf-8"?>
<!-- Generator: Adobe Illustrator 19.0.0, SVG Export Plug-In . SVG Version: 6.00 Build 0)  -->
<svg version="1.1" id="Layer_1" xmlns="http://www.w3.org/2000/svg" xmlns:xlink="http://www.w3.org/1999/xlink" x="0px" y="0px"
	 viewBox="0 0 45.2 49.3" style="enable-background:new 0 0 45.2 49.3;" xml:space="preserve">
<style type="text/css">
	.st0{clip-path:url(#XMLID_6_);fill:#F9CBDF;}
	.st1{fill:#EC008C;}
</style>
<g id="XMLID_3_">
	<defs>
		<polygon id="XMLID_4_" points="0,0.1 45.2,0.1 45.2,49.2 0,49.2 0,0.1 		"/>
	</defs>
	<clipPath id="XMLID_6_">
		<use xlink:href="#XMLID_4_"  style="overflow:visible;"/>
	</clipPath>
	<path id="XMLID_5_" class="st0" d="M42.3,49.2c1,0,2-0.6,2.5-1.5c0.5-0.9,0.5-2,0-2.9L28.4,17.2V4.5c1.2,0,2.2-1,2.2-2.2
		c0-1.2-1-2.2-2.2-2.2H16.8c-1.2,0-2.2,1-2.2,2.2c0,1.2,1,2.2,2.2,2.2v12.7L0.4,44.8c-0.5,0.9-0.5,2,0,2.9c0.5,0.9,1.5,1.5,2.5,1.5
		H42.3L42.3,49.2z"/>
</g>
<path id="XMLID_2_" class="st1" d="M13.9,27.7L3.6,45.2c-0.1,0.2-0.1,0.5,0,0.7c0.1,0.2,0.4,0.4,0.6,0.4H41c0.3,0,0.5-0.1,0.6-0.4
	c0.1-0.2,0.1-0.5,0-0.7L31.3,27.7H13.9L13.9,27.7z"/>
</svg>
