<?xml version="1.0" encoding="utf-8"?>
<!-- Generator: Adobe Illustrator 19.0.0, SVG Export Plug-In . SVG Version: 6.00 Build 0)  -->
<svg version="1.1" id="Layer_1" xmlns="http://www.w3.org/2000/svg" xmlns:xlink="http://www.w3.org/1999/xlink" x="0px" y="0px"
	 viewBox="0 0 36 53.5" style="enable-background:new 0 0 36 53.5;" xml:space="preserve">
<style type="text/css">
	.st0{fill:#F49AC1;}
	.st1{fill:#EC008C;}
</style>
<path id="XMLID_5_" class="st0" d="M19.9,2.1c-9.3,0-16.8,8.1-16.8,18c0,9.2,6.5,13.6,9.4,18.8c2.9,5.2,3.3,14.6,11.5,14.6
	c4.1,0,7.4-3,8.1-6.9c0.7-4.3,0.8-7.3,1.3-10.6c0.9-5.8,2.6-10.6,2.6-15.9C36,10.2,29.2,2.1,19.9,2.1L19.9,2.1z M13.4,29.6
	c0.2,0.7-0.1,1.4-0.8,1.6c-0.2,0.1-0.3,0.1-0.5,0.1c-0.5,0-0.9-0.3-1.1-0.8c-2.4-6.6,0.7-14.8,5-17.8c0.6-0.4,1.4-0.2,1.8,0.3
	c0.4,0.6,0.2,1.4-0.3,1.8C14.4,16.9,11.3,23.8,13.4,29.6L13.4,29.6z M31.2,26.3c-0.3,0.9-1,1.6-1.8,2c-1.1,0.5-1.9,1.6-2.3,3.1
	c-0.5,2,0,4.1,1.1,5.5c0.7,0.8,1,1.8,0.9,2.9l0,0.5c-0.2,2.1-1.9,3.7-4,3.7H25c-2.4,0-4.6-2-5.5-5c-0.3-1-0.8-1.6-1.5-2.5
	c-1.1-1.4-2.5-3.2-2.6-6.6c0-2.7,1-5.4,3-7.3c2.9-3,7.1-3.8,11.3-3c-0.2-6.4-4.3-11.2-9.8-11.2c-4.5,0-8.7,3.4-10,8.2
	c-0.2,0.7-0.9,1.1-1.6,0.9c-0.7-0.2-1.1-0.9-0.9-1.6C9.1,10,14.2,5.9,19.9,5.9C28.7,5.9,34.7,15.5,31.2,26.3L31.2,26.3z"/>
<path id="XMLID_4_" class="st1" d="M29.6,22.2C22,20.6,17.9,25.3,18,29.9c0.1,4.3,2.9,4.9,3.9,8.4c0.5,1.8,1.7,3.2,3.1,3.2
	c0.8,0,1.4-0.6,1.5-1.4l0-0.5c0-0.4-0.1-0.8-0.3-1.1C23,34.8,24,27.8,28.4,26c0.3-0.1,0.5-0.3,0.6-0.5c0.5-0.7,0.6-1.6,0.7-2.9
	C29.7,22.4,29.6,22.4,29.6,22.2L29.6,22.2z"/>
<path id="XMLID_3_" class="st1" d="M29.7,4.3c0-0.8-0.4-1.5-1.1-1.9C25.9,0.9,22.7,0,19.4,0C10.1,0,2.2,6.6,0.1,15.3
	c-0.2,1,0,2,0.5,2.8c0.6,0.8,1.5,1.3,2.4,1.5l0,0C3.3,9.9,10.8,2.1,19.9,2.1c3.8,0,7.1,1.3,9.8,3.5V4.3L29.7,4.3z"/>
<polyline id="XMLID_2_" class="st1" points="28.8,4.3 28.8,22.6 29.7,22.6 29.7,4.3 "/>
</svg>
