<?xml version="1.0" encoding="utf-8"?>
<svg version="1.1" id="Layer_1" xmlns="http://www.w3.org/2000/svg" xmlns:xlink="http://www.w3.org/1999/xlink" x="0px" y="0px"
	 viewBox="0 0 39.7 46.6" style="enable-background:new 0 0 39.7 46.6;" xml:space="preserve">
<style type="text/css">
	.st0{fill:#ec008c;}
	.st1{fill:#f49ac1;}
</style>
<path id="XMLID_9_" class="st0" d="M21.5,0.8c0-0.4-0.3-0.7-0.7-0.7h-6.5c-4,1-7.7,1.9-13.6,2C0.3,2,0,2.4,0,2.7v2
	c0,0.4,0.3,0.7,0.7,0.7c5.9,0.1,9.6,0.9,13.6,2v11.3c0,0.4,0.3,0.7,0.7,0.7h4.8c0.1,0,0.1,0,0.2,0c-0.5-3.1-0.4-6.6,0.5-9.1V7.4h0.3
	c0.4,0,0.7-0.3,0.7-0.7V0.8L21.5,0.8z"/>
<path id="XMLID_8_" class="st1" d="M19.1,21.9c0.5,0,1,0.2,1.5,0.5v-1.1c0-0.4-0.3-0.7-0.7-0.7H15c-0.4,0-0.7,0.3-0.7,0.7v0.6H19.1
	L19.1,21.9z"/>
<path id="XMLID_7_" class="st1" d="M19.1,39h-4.8v6.9c0,0.4,0.3,0.7,0.7,0.7h4.8c0.4,0,0.7-0.3,0.7-0.7v-7.3
	C20.1,38.8,19.6,39,19.1,39L19.1,39z"/>
<path id="XMLID_6_" class="st0" d="M20.5,24.4c0,0.8-0.6,1.4-1.4,1.4H13c-0.8,0-1.4-0.6-1.4-1.4c0-0.8,0.6-1.4,1.4-1.4h6.1
	C19.9,23,20.5,23.6,20.5,24.4L20.5,24.4z"/>
<path id="XMLID_5_" class="st0" d="M21.9,28.4c0,0.8-0.6,1.4-1.4,1.4H13c-0.8,0-1.4-0.6-1.4-1.4c0-0.8,0.6-1.4,1.4-1.4h7.5
	C21.3,27,21.9,27.6,21.9,28.4L21.9,28.4z"/>
<path id="XMLID_4_" class="st0" d="M20.2,33.8H13c-0.8,0-1.4-0.6-1.4-1.4S12.2,31,13,31h7.2c0.8,0,1.4,0.6,1.4,1.4
	S21,33.8,20.2,33.8L20.2,33.8z"/>
<path id="XMLID_3_" class="st0" d="M20.5,36.4c0,0.8-0.6,1.4-1.4,1.4H13c-0.8,0-1.4-0.6-1.4-1.4c0-0.8,0.6-1.4,1.4-1.4h6.1
	C19.9,35,20.5,35.6,20.5,36.4L20.5,36.4z"/>
<path id="XMLID_2_" class="st0" d="M34.7,29c-3.2,0-7.6-5.1-8.5-8.8c-0.6-2.3-1-4.8-1-7.2V8.8c0-0.4-0.3-0.7-0.7-0.7
	c-3.7,0-4.5,7.8-2.8,13.3v3v1.7c0.8,0.4,1.4,1.3,1.4,2.3c0,0.9-0.4,1.6-1.1,2.1c0.5,0.5,0.8,1.1,0.8,1.9c0,0.9-0.5,1.6-1.1,2.1v4.6
	c2.1,1.6,4.5,3.2,8.3,3.2h9c0.4,0,0.7-0.3,0.7-0.7V29.7c0-0.4-0.3-0.7-0.7-0.7H34.7L34.7,29z"/>
</svg>
