<?xml version="1.0" encoding="utf-8"?>
<!-- Generator: Adobe Illustrator 19.0.0, SVG Export Plug-In . SVG Version: 6.00 Build 0)  -->
<svg version="1.1" id="Layer_1" xmlns="http://www.w3.org/2000/svg" xmlns:xlink="http://www.w3.org/1999/xlink" x="0px" y="0px"
	 viewBox="0 0 39.7 46.9" style="enable-background:new 0 0 39.7 46.9;" xml:space="preserve">
<style type="text/css">
	.st0{fill:#F49AC1;}
	.st1{fill:#EC008C;}
	.st2{fill:#F9CBDF;}
	.st3{fill:#F067A6;}
</style>
<path id="XMLID_7_" class="st0" d="M31,42.6c0,3-2.7,4.2-5,4.2c-2.3,0-5-1.2-5-4.2c0-3,2.7-4.2,5-4.2C28.3,38.4,31,39.6,31,42.6
	L31,42.6z"/>
<path id="XMLID_6_" class="st1" d="M15.7,38.4H0.8c-0.4,1.9-0.6,3.7-0.7,5.5C0,44.7,0.3,45.4,0.8,46c0.5,0.6,1.3,0.9,2,0.9h10.6
	c0.8,0,1.6-0.4,2.1-1c0.5-0.6,0.8-1.4,0.6-2.2C16,42.1,15.8,40.3,15.7,38.4L15.7,38.4z"/>
<path id="XMLID_5_" class="st1" d="M28.5,0c-7.2-0.1-11.7,5-13.6,11.9H14c-0.8,0-1.6,0.4-2.2,1c-0.8,1-1.6,2.1-2.4,3.3l-0.8-0.4
	c-0.7-0.4-1.5-0.1-1.9,0.6l-2.4,4.5c-0.4,0.7-0.1,1.5,0.6,1.9l0.7,0.4c-1.9,4.2-3.5,8.8-4.5,13.2h14.3c-0.4-7.6-0.2-16.3,0.9-22.4
	c0-0.1,0-0.3,0.1-0.4c0.1-0.6,0.2-1.1,0.3-1.5c1.6-5.7,5.8-9.9,11.5-9.8c5.1,0.1,9.3,4.1,9.1,10.8V36c0,3.1-2.5,5.5-5.5,5.5h-6
	c-0.6,0-1,0.5-1,1c0,0.6,0.5,1,1,1h6c4.2,0,7.6-3.4,7.6-7.6V12.9C39.6,4.8,34.5,0.1,28.5,0L28.5,0z"/>
<path id="XMLID_4_" class="st2" d="M29.3,34.4c-2-1.2-4.3-1.5-6.6,0l1.3,2.2c0.1,0.2,0.3,0.2,0.5,0.1c1-0.5,1.9-0.6,3.1,0
	c0.2,0.1,0.4,0,0.5-0.1L29.3,34.4L29.3,34.4z"/>
<path id="XMLID_3_" class="st0" d="M29.4,33.5c0.2,0.1,0.4,0,0.5-0.1l1.3-2.2c-3.2-1.8-7.1-1.8-10.3,0l1.2,2.2
	c0,0.1,0.1,0.1,0.2,0.2c0.1,0,0.2,0,0.3,0C24.9,32.1,27,32.2,29.4,33.5L29.4,33.5z"/>
<path id="XMLID_2_" class="st3" d="M19.1,28.1c2.1-1.2,4.5-1.9,6.9-1.9c2.4,0,4.8,0.6,6.9,1.9l-1.2,2c-0.1,0.2-0.3,0.2-0.5,0.1
	c-1.6-0.9-3.5-1.3-5.3-1.3c-1.9,0-3.7,0.5-5.3,1.3c-0.2,0.1-0.4,0-0.5-0.1L19.1,28.1L19.1,28.1z"/>
</svg>
