<?xml version="1.0" encoding="utf-8"?>
<!-- Generator: Adobe Illustrator 19.0.0, SVG Export Plug-In . SVG Version: 6.00 Build 0)  -->
<svg version="1.1" id="Layer_1" xmlns="http://www.w3.org/2000/svg" xmlns:xlink="http://www.w3.org/1999/xlink" x="0px" y="0px"
	 viewBox="0 0 43.1 47" style="enable-background:new 0 0 43.1 47;" xml:space="preserve">
<style type="text/css">
	.st0{clip-path:url(#XMLID_6_);fill:#918BC3;}
	.st1{fill:#2E3192;}
</style>
<g id="XMLID_3_">
	<defs>
		<polygon id="XMLID_4_" points="0,0.2 43.1,0.2 43.1,47 0,47 0,0.2 		"/>
	</defs>
	<clipPath id="XMLID_6_">
		<use xlink:href="#XMLID_4_"  style="overflow:visible;"/>
	</clipPath>
	<path id="XMLID_5_" class="st0" d="M40.3,47c1,0,1.9-0.5,2.4-1.4c0.5-0.9,0.5-1.9,0-2.8L27.1,16.4V4.3c1.2,0,2.1-0.9,2.1-2.1
		c0-1.2-0.9-2.1-2.1-2.1H16c-1.2,0-2.1,0.9-2.1,2.1c0,1.2,0.9,2.1,2.1,2.1v12.1L0.4,42.8c-0.5,0.9-0.5,1.9,0,2.8
		C0.9,46.5,1.8,47,2.8,47H40.3L40.3,47z"/>
</g>
<path id="XMLID_2_" class="st1" d="M13.3,26.5L3.4,43.2c-0.1,0.2-0.1,0.5,0,0.7c0.1,0.2,0.4,0.4,0.6,0.4h35.1c0.2,0,0.5-0.1,0.6-0.4
	c0.1-0.2,0.1-0.5,0-0.7l-9.9-16.7H13.3L13.3,26.5z"/>
</svg>
